<svg xmlns="http://www.w3.org/2000/svg" viewBox="0 0 64 64"><path d="M31.34 20.02 L32.00 2.00 L32.66 20.02 Z" fill="#f4b400"/><path d="M34.34 20.23 Q37.86 13.28 37.27 5.52 Q33.74 12.46 34.34 20.23 Z" fill="#c8791a"/><path d="M35.98 20.68 L43.48 4.28 L37.19 21.18 Z" fill="#f4b400"/><path d="M38.67 22.02 Q44.58 16.95 47.00 9.55 Q41.09 14.62 38.67 22.02 Z" fill="#c8791a"/><path d="M40.01 23.06 L53.21 10.79 L40.94 23.99 Z" fill="#f4b400"/><path d="M41.98 25.33 Q49.38 22.91 54.45 17.00 Q47.05 19.42 41.98 25.33 Z" fill="#c8791a"/><path d="M42.82 26.81 L59.72 20.52 L43.32 28.02 Z" fill="#f4b400"/><path d="M43.77 29.66 Q51.54 30.26 58.48 26.73 Q50.72 26.14 43.77 29.66 Z" fill="#c8791a"/><path d="M43.98 31.34 L62.00 32.00 L43.98 32.66 Z" fill="#f4b400"/><path d="M43.77 34.34 Q50.72 37.86 58.48 37.27 Q51.54 33.74 43.77 34.34 Z" fill="#c8791a"/><path d="M43.32 35.98 L59.72 43.48 L42.82 37.19 Z" fill="#f4b400"/><path d="M41.98 38.67 Q47.05 44.58 54.45 47.00 Q49.38 41.09 41.98 38.67 Z" fill="#c8791a"/><path d="M40.94 40.01 L53.21 53.21 L40.01 40.94 Z" fill="#f4b400"/><path d="M38.67 41.98 Q41.09 49.38 47.00 54.45 Q44.58 47.05 38.67 41.98 Z" fill="#c8791a"/><path d="M37.19 42.82 L43.48 59.72 L35.98 43.32 Z" fill="#f4b400"/><path d="M34.34 43.77 Q33.74 51.54 37.27 58.48 Q37.86 50.72 34.34 43.77 Z" fill="#c8791a"/><path d="M32.66 43.98 L32.00 62.00 L31.34 43.98 Z" fill="#f4b400"/><path d="M29.66 43.77 Q26.14 50.72 26.73 58.48 Q30.26 51.54 29.66 43.77 Z" fill="#c8791a"/><path d="M28.02 43.32 L20.52 59.72 L26.81 42.82 Z" fill="#f4b400"/><path d="M25.33 41.98 Q19.42 47.05 17.00 54.45 Q22.91 49.38 25.33 41.98 Z" fill="#c8791a"/><path d="M23.99 40.94 L10.79 53.21 L23.06 40.01 Z" fill="#f4b400"/><path d="M22.02 38.67 Q14.62 41.09 9.55 47.00 Q16.95 44.58 22.02 38.67 Z" fill="#c8791a"/><path d="M21.18 37.19 L4.28 43.48 L20.68 35.98 Z" fill="#f4b400"/><path d="M20.23 34.34 Q12.46 33.74 5.52 37.27 Q13.28 37.86 20.23 34.34 Z" fill="#c8791a"/><path d="M20.02 32.66 L2.00 32.00 L20.02 31.34 Z" fill="#f4b400"/><path d="M20.23 29.66 Q13.28 26.14 5.52 26.73 Q12.46 30.26 20.23 29.66 Z" fill="#c8791a"/><path d="M20.68 28.02 L4.28 20.52 L21.18 26.81 Z" fill="#f4b400"/><path d="M22.02 25.33 Q16.95 19.42 9.55 17.00 Q14.62 22.91 22.02 25.33 Z" fill="#c8791a"/><path d="M23.06 23.99 L10.79 10.79 L23.99 23.06 Z" fill="#f4b400"/><path d="M25.33 22.02 Q22.91 14.62 17.00 9.55 Q19.42 16.95 25.33 22.02 Z" fill="#c8791a"/><path d="M26.81 21.18 L20.52 4.28 L28.02 20.68 Z" fill="#f4b400"/><path d="M29.66 20.23 Q30.26 12.46 26.73 5.52 Q26.14 13.28 29.66 20.23 Z" fill="#c8791a"/><circle cx="32" cy="32" r="12" fill="#f4b400" stroke="#c8791a" stroke-width="1"/><g fill="none" stroke="#c8791a" stroke-width="0.9" stroke-linecap="round"><ellipse cx="29" cy="30.2" rx="1.3" ry="1.7" fill="#fff8e6"/><ellipse cx="35" cy="30.2" rx="1.3" ry="1.7" fill="#fff8e6"/><circle cx="29" cy="30.4" r="0.7" fill="#c8791a" stroke="none"/><circle cx="35" cy="30.4" r="0.7" fill="#c8791a" stroke="none"/><path d="M32 31.6 L31.3 34 Q32 34.5 32.7 34"/><path d="M29.9 36.2 Q32 37.5 34.1 36.2"/></g></svg>